<svg width="2500" height="810" viewBox="0 0 2500 810" fill="none" xmlns="http://www.w3.org/2000/svg">
<path d="M406.6 807.9C628.784 807.9 808.9 627.784 808.9 405.6C808.9 183.416 628.784 3.30005 406.6 3.30005C184.416 3.30005 4.30005 183.416 4.30005 405.6C4.30005 627.784 184.416 807.9 406.6 807.9Z" fill="#FF4500"/>
<path d="M674.9 405.6C673.7 373.2 646.5 347.9 614 349C599.6 349.5 585.9 355.4 575.5 365.3C529.7 334.1 475.9 317 420.6 315.8L446.7 190.3L532.8 208.4C535.2 230.5 555 246.5 577.1 244.1C599.2 241.7 615.2 221.9 612.8 199.8C610.4 177.7 590.6 161.7 568.5 164.1C555.8 165.4 544.4 172.8 538.1 183.8L439.5 164.1C432.8 162.6 426.1 166.8 424.6 173.6C424.6 173.7 424.6 173.7 424.6 173.8L394.9 313.4C338.9 314.3 284.4 331.5 238 362.9C214.4 340.7 177.2 341.8 155 365.5C132.8 389.1 133.9 426.3 157.6 448.5C162.2 452.8 167.5 456.5 173.4 459.1C173 465 173 470.9 173.4 476.8C173.4 566.9 278.4 640.2 407.9 640.2C537.4 640.2 642.4 567 642.4 476.8C642.8 470.9 642.8 465 642.4 459.1C662.6 449 675.3 428.2 674.9 405.6ZM272.6 445.9C272.6 423.7 290.7 405.6 312.9 405.6C335.1 405.6 353.2 423.7 353.2 445.9C353.2 468.1 335.1 486.2 312.9 486.2C290.6 486 272.6 468.1 272.6 445.9ZM506.3 556.5C477.7 578 442.7 589 406.9 587.5C371.1 589 336.1 578 307.5 556.5C303.7 551.9 304.4 545 309 541.2C313 537.9 318.7 537.9 322.8 541.2C347 558.9 376.5 567.9 406.5 566.5C436.5 568.1 466.1 559.5 490.6 542C495 537.7 502.2 537.8 506.5 542.2C510.8 546.6 510.7 553.8 506.3 558.1V556.5ZM499.1 487.6C476.9 487.6 458.8 469.5 458.8 447.3C458.8 425.1 476.9 407 499.1 407C521.3 407 539.4 425.1 539.4 447.3C540.3 469.5 523 488.2 500.8 489.1C500.1 489.1 499.5 489.1 498.8 489.1L499.1 487.6Z" fill="white"/>
<path d="M2248.8 282.9C2279.07 282.9 2303.6 258.365 2303.6 228.1C2303.6 197.835 2279.07 173.3 2248.8 173.3C2218.53 173.3 2194 197.835 2194 228.1C2194 258.365 2218.53 282.9 2248.8 282.9Z" fill="#FF4500"/>
<path d="M1472.2 461.3C1493.4 462.8 1511.8 446.8 1513.4 425.5C1513.5 424.3 1513.5 422.9 1513.5 421.6C1513.2 414.2 1512.3 406.7 1510.8 399.4C1497.8 330 1438.5 278.9 1368 276.1C1287.7 276.1 1220.6 349.9 1220.6 440.5C1220.6 531.1 1286.6 605 1367.9 605C1411 606.7 1452.8 589.3 1481.8 557.4C1493.7 544.4 1492.7 524.3 1479.7 512.4C1478.7 511.5 1477.8 510.7 1476.8 510C1463.8 501.9 1446.9 503.6 1435.9 514.2C1417.8 532.2 1393.5 542.5 1367.9 543.3C1323.7 539.8 1288.3 505.2 1283.9 460.9H1471L1472.2 461.3ZM1367.6 338C1406.5 340.6 1439.2 368.4 1447.9 406.5H1287.5C1296.1 368.3 1328.6 340.5 1367.6 338Z" fill="white"/>
<path d="M1223.8 308C1223.8 292.6 1212.4 279.5 1197.1 277.6C1155.8 270.7 1113.8 286 1086.7 318V314C1086.7 296.9 1072.9 283.1 1055.8 283.1C1038.7 283.1 1024.9 296.9 1024.9 314V567C1024.5 583.6 1037.2 597.7 1053.8 599.1C1070.7 600.3 1085.5 587.5 1086.6 570.6C1086.7 569.4 1086.7 568.2 1086.6 567V437.2C1083.9 385.4 1123.6 341.3 1175.4 338.5C1180 338.2 1184.7 338.3 1189.3 338.8H1195.5C1211.5 337.4 1223.8 324.1 1223.8 308Z" fill="white"/>
<path d="M2279.6 341.2C2279.6 324.1 2265.8 310.3 2248.7 310.3C2231.6 310.3 2217.8 324.1 2217.8 341.2V566.9C2217.8 584 2231.6 597.8 2248.7 597.8C2265.8 597.8 2279.6 584 2279.6 566.9V341.2Z" fill="white"/>
<path d="M1823.6 169.7C1823.6 152.7 1809.8 138.9 1792.8 138.9C1775.8 138.9 1762 152.7 1762 169.7V307.7C1741.2 286.7 1712.6 275.3 1683.1 276.1C1602.8 276.1 1535.7 349.9 1535.7 440.5C1535.7 531.1 1601.8 605 1683.1 605C1713.1 605.9 1742.1 594.4 1763.4 573.1C1768.2 589.4 1785.3 598.7 1801.6 593.9C1813.9 590.3 1822.7 579.5 1823.5 566.6L1823.6 169.7ZM1682.9 544.1C1635.6 544.1 1597.1 498.1 1597.1 441.2C1597.1 384.3 1635.3 338.3 1682.9 338.3C1730.5 338.3 1768.7 384.3 1768.7 441.2C1768.7 498.1 1730.5 543.6 1683.1 543.6L1682.9 544.1Z" fill="white"/>
<path d="M2145.8 169.7C2145.8 152.7 2132 138.9 2115 138.9C2098 138.9 2084.2 152.7 2084.2 169.7V307.7C2063.4 286.7 2034.8 275.3 2005.3 276.1C1925 276.1 1857.9 349.9 1857.9 440.5C1857.9 531.1 1924 605 2005.3 605C2035.3 605.9 2064.3 594.4 2085.6 573.1C2090.4 589.4 2107.5 598.7 2123.8 593.9C2136.1 590.3 2144.9 579.5 2145.7 566.6L2145.8 169.7ZM2005.2 544.1C1957.9 544.1 1919.4 498.1 1919.4 441.2C1919.4 384.3 1957.6 338.3 2005.2 338.3C2052.8 338.3 2091 384.3 2091 441.2C2091 498.1 2052.8 543.6 2005.4 543.6L2005.2 544.1Z" fill="white"/>
<path d="M2439.7 566.8V338H2466.4C2481.2 338.9 2493.8 327.6 2494.7 312.9C2494.7 312.4 2494.8 311.8 2494.8 311.2C2496.1 296.5 2485.2 283.5 2470.6 282.2C2469.8 282.1 2468.9 282.1 2468.1 282.1H2439.8V239.6C2440 223.1 2427.4 209.2 2410.9 207.7C2394 206.5 2379.3 219.3 2378.1 236.2C2378 236.9 2378 237.7 2378 238.4V282.8H2351.2C2336.4 281.9 2323.8 293.2 2322.9 307.9C2322.9 308.4 2322.8 309 2322.8 309.6C2321.5 324.3 2332.4 337.3 2347 338.6C2347.8 338.7 2348.7 338.7 2349.5 338.7H2376.2V566.9C2376.2 583.9 2390 597.7 2407 597.7C2424 598.8 2438.5 585.8 2439.6 568.8C2439.7 568.2 2439.7 567.5 2439.7 566.8Z" fill="white"/>
</svg>
